<svg width="60" height="66" viewBox="0 0 60 66" fill="none" xmlns="http://www.w3.org/2000/svg">
<rect width="60" height="60" fill="#683FFF"/>
<rect width="8.48528" height="8.48528" transform="translate(30 54) rotate(45)" fill="#683FFF"/>
<path fill-rule="evenodd" clip-rule="evenodd" d="M19.1416 16.2067H8.56864L5.12136 3.4313H12.2477L12.6591 4.19329H17.5389C21.0768 4.19329 24.7474 7.06788 25.6951 10.5812C26.6428 14.0944 24.5241 16.969 20.9862 16.969H19.553L19.1416 16.207V16.2067ZM10.8067 0.761989L10.3953 0H0L5.29898 19.638H20.9933L21.4047 20.4H31.8L26.501 0.761989H10.8067ZM17.6072 13.361L18.0186 14.123H20.2178C22.1747 14.123 23.3545 12.5228 22.8301 10.5795C22.3057 8.63621 20.2635 7.03765 18.3066 7.03765H14.1934L13.782 6.27566H8.75337L10.6656 13.3627L17.6072 13.361Z" transform="translate(13.8008 19.8)" fill="white"/>
</svg>
