<svg viewBox="0 0 200 80" version="1.1" xmlns="http://www.w3.org/2000/svg" xmlns:xlink="http://www.w3.org/1999/xlink">
<g id="Canvas" fill="none">
<g id="Vector">
<path d="M 3.14176e-07 6.05507e-07L 15.851 6.05507e-07C 18.6639 6.05507e-07 21.0206 0.990476 22.9212 2.97143C 24.8978 4.87619 25.9242 7.2381 26.0002 10.0571L 26.0002 69.9429C 25.9242 72.7619 24.8978 75.1619 22.9212 77.1429C 21.0206 79.0476 18.6639 80 15.851 80L 3.14176e-07 80L 3.14176e-07 6.05507e-07ZM 17.9036 67.6571L 17.9036 12.3429C 17.9036 9.6 16.4592 8.22857 13.5703 8.22857L 8.21059 8.22857L 8.21059 71.8857L 13.5703 71.8857C 16.4592 71.8857 17.9036 70.4762 17.9036 67.6571ZM 70.8858 80L 62.6753 80L 62.6753 50.7429C 62.6753 47.3143 61.2688 45.6 58.4559 45.6L 54.1226 45.6L 54.1226 80L 45.912 80L 45.912 6.05507e-07L 60.8507 6.05507e-07C 63.5875 6.05507e-07 65.9443 0.990476 67.9209 2.97143C 69.8975 4.87619 70.8858 7.2381 70.8858 10.0571L 70.8858 34.7429C 71.1139 38.9333 70.1256 41.2952 67.9209 41.8286C 68.8332 42.2857 69.5174 43.1619 69.9735 44.4571C 70.5057 45.6762 70.8098 46.7809 70.8858 47.7714L 70.8858 49.3714L 70.8858 80ZM 54.1226 37.8286L 58.4559 37.8286C 61.2688 37.8286 62.6753 36.3048 62.6753 33.2571L 62.6753 11.7714C 62.6753 9.02857 61.2688 7.65714 58.4559 7.65714L 54.1226 7.65714L 54.1226 37.8286ZM 94.3327 6.05507e-07L 99.2363 6.05507e-07C 100.301 6.05507e-07 101.099 0.342856 101.631 1.02857C 102.239 1.63809 102.543 2.3619 102.543 3.2L 102.543 80L 96.7275 80C 95.3591 80 94.5608 79.4286 94.3327 78.2857L 94.3327 6.05507e-07ZM 131.166 6.05507e-07L 154.886 6.05507e-07C 154.05 2.05714 153.176 4.03809 152.263 5.94286C 151.427 7.46667 149.983 8.22857 147.93 8.22857L 138.807 8.22857C 138.275 8.22857 137.819 8.41905 137.439 8.8C 137.058 9.18095 136.868 9.63809 136.868 10.1714L 136.868 35.0857L 151.465 35.0857L 148.728 41.0286C 147.892 42.5524 146.447 43.3143 144.395 43.3143L 138.921 43.3143C 137.553 43.3143 136.868 43.9619 136.868 45.2571L 136.868 77.6C 136.868 78.2857 136.602 78.8571 136.07 79.3143C 135.614 79.7714 135.082 80 134.473 80L 128.772 80L 128.772 2.4C 128.772 1.79048 129 1.25714 129.456 0.8C 129.912 0.266667 130.482 6.05507e-07 131.166 6.05507e-07ZM 200 6.05507e-07L 197.263 5.94286C 196.655 7.39048 195.21 8.11429 192.93 8.11429L 186.544 8.11429C 185.327 8.11429 184.643 8.76191 184.491 10.0571L 184.491 80L 178.675 80C 177.155 80 176.395 79.4286 176.395 78.2857L 176.395 8.11429L 164.877 8.11429L 164.877 2.51429C 164.877 1.82857 165.105 1.25714 165.561 0.8C 166.093 0.266667 166.702 6.05507e-07 167.386 6.05507e-07L 200 6.05507e-07Z" fill="white"/>
</g>
</g>
</svg>

