<svg viewBox="0 0 238 80" version="1.1" xmlns="http://www.w3.org/2000/svg" xmlns:xlink="http://www.w3.org/1999/xlink">
<g id="Canvas" fill="none">
<g id="events">
<g id="Canvas_2">
<g id="events_2">
<g id="Vector">
<path d="M 8.06548 71.2605L 24.8686 71.2605C 24.6445 71.7834 24.3084 72.5303 23.8604 73.5014C 23.487 74.3978 23.1509 75.1821 22.8522 75.8543C 22.5535 76.4519 22.3668 76.8627 22.2921 77.0868C 21.4706 78.5061 20.0143 79.2157 17.9233 79.2157L -5.46025e-07 79.2157L -5.46025e-07 3.02521C 0.14936 1.53128 0.970843 0.784314 2.46445 0.784314L 23.4123 0.784314L 20.7238 6.61064C 20.0517 8.10457 18.6327 8.85154 16.467 8.85154L 9.96982 8.85154C 8.70026 8.85154 8.06548 9.48646 8.06548 10.7563L 8.06548 34.0616L 20.1637 34.0616C 19.9397 34.5845 19.6036 35.3315 19.1555 36.3025C 18.7821 37.1989 18.446 37.9832 18.1473 38.6555C 17.8486 39.3277 17.6619 39.7759 17.5872 40C 16.7657 41.4192 15.3468 42.1288 13.3304 42.1288L 9.96982 42.1288C 9.44706 42.1288 8.99898 42.3156 8.62558 42.6891C 8.25218 43.0626 8.06548 43.5107 8.06548 44.0336L 8.06548 71.2605ZM 68.9609 0.784314L 56.9747 79.2157L 53.5021 79.2157L 52.942 79.2157C 50.3282 79.2157 48.7225 77.3856 48.1251 73.7255L 36.923 0.784314L 43.0842 0.784314C 44.2791 0.784314 45.0632 1.79272 45.4366 3.80952L 52.942 52.9972L 60.8954 0.784314L 68.9609 0.784314ZM 95.8441 71.2605L 112.647 71.2605C 112.423 71.7834 112.087 72.5303 111.639 73.5014C 111.266 74.3978 110.93 75.1821 110.631 75.8543C 110.332 76.4519 110.145 76.8627 110.071 77.0868C 109.249 78.5061 107.793 79.2157 105.702 79.2157L 87.7786 79.2157L 87.7786 3.02521C 87.928 1.53128 88.7495 0.784314 90.2431 0.784314L 111.191 0.784314L 108.502 6.61064C 107.83 8.10457 106.411 8.85154 104.246 8.85154L 97.7485 8.85154C 96.4789 8.85154 95.8441 9.48646 95.8441 10.7563L 95.8441 34.0616L 107.942 34.0616C 107.718 34.5845 107.382 35.3315 106.934 36.3025C 106.561 37.1989 106.225 37.9832 105.926 38.6555C 105.627 39.3277 105.441 39.7759 105.366 40C 104.544 41.4192 103.125 42.1288 101.109 42.1288L 97.7485 42.1288C 97.2257 42.1288 96.7776 42.3156 96.4042 42.6891C 96.0308 43.0626 95.8441 43.5107 95.8441 44.0336L 95.8441 71.2605ZM 154.5 0.784314L 154.5 79.2157L 150.803 79.2157C 149.459 79.2157 148.376 78.8795 147.554 78.2073C 146.733 77.4603 146.21 76.8254 145.986 76.3025C 145.762 75.7796 145.575 75.07 145.426 74.1737L 136.8 35.4062L 136.8 79.2157L 128.734 79.2157L 128.734 0.784314L 132.432 0.784314C 133.85 0.784314 134.971 1.0084 135.792 1.45658C 136.614 1.90476 137.174 2.42764 137.472 3.02521C 137.771 3.54809 137.995 4.2577 138.145 5.15406L 146.434 45.9384L 146.434 0.784314L 154.5 0.784314ZM 202.177 0.784314L 199.488 6.61064C 198.891 8.02988 197.472 8.7395 195.232 8.7395L 188.958 8.7395C 187.763 8.7395 187.091 9.37442 186.942 10.6443L 186.942 79.2157L 181.229 79.2157C 179.735 79.2157 178.989 78.6555 178.989 77.535L 178.989 8.7395L 167.674 8.7395L 167.674 3.2493C 167.674 2.57703 167.899 2.01681 168.347 1.56863C 168.869 1.04575 169.467 0.784314 170.139 0.784314L 202.177 0.784314ZM 235.76 17.8151C 234.191 18.6368 232.212 19.5331 229.822 20.5042L 229.822 11.4286C 229.822 10.2334 229.412 9.22502 228.59 8.40336C 227.769 7.507 226.761 7.05882 225.566 7.05882C 224.371 7.05882 223.363 7.507 222.541 8.40336C 221.72 9.22502 221.309 10.2334 221.309 11.4286L 221.309 18.9356C 221.309 20.2801 221.608 21.8487 222.205 23.6415C 222.803 25.3595 223.4 26.7787 223.997 27.8992L 224.782 29.4678L 234.415 47.619C 235.61 49.7105 236.506 51.8021 237.104 53.8936C 237.701 55.9851 238 57.5537 238 58.5994L 238 60.056L 238 70.028C 238 72.7918 236.992 75.1447 234.975 77.0868C 233.034 79.0289 230.681 80 227.918 80L 222.877 80C 220.189 79.9253 217.911 78.9169 216.044 76.9748C 214.177 75.0327 213.206 72.7171 213.131 70.028L 213.131 61.9608C 213.131 59.8693 213.878 58.4127 215.372 57.591C 215.745 57.4416 217.724 56.5826 221.309 55.014L 221.309 68.6835C 221.309 69.8786 221.72 70.887 222.541 71.7087C 223.363 72.5303 224.371 72.9412 225.566 72.9412C 226.761 72.9412 227.769 72.5303 228.59 71.7087C 229.412 70.8123 229.822 69.7666 229.822 68.5714L 229.822 59.6078C 229.822 58.2633 229.524 56.6947 228.926 54.902C 228.329 53.1092 227.731 51.6527 227.134 50.5322L 226.35 48.9636L 216.716 30.9244C 215.521 28.8329 214.625 26.7414 214.028 24.6499C 213.43 22.5584 213.131 21.0271 213.131 20.056L 213.131 18.4874L 213.131 10.4202C 213.131 7.65639 214.102 5.22876 216.044 3.13725C 218.06 1.04575 220.45 1.0448e-06 223.213 1.0448e-06L 228.254 1.0448e-06C 230.943 0.0746976 233.22 1.1578 235.087 3.2493C 237.029 5.3408 238 7.73109 238 10.4202L 238 13.4454C 238 15.5369 237.253 16.9935 235.76 17.8151Z" fill="white"/>
</g>
</g>
</g>
</g>
</g>
</svg>

