<svg width="20" height="20" viewBox="0 0 20 20" version="1.1" xmlns="http://www.w3.org/2000/svg" xmlns:xlink="http://www.w3.org/1999/xlink">
<g id="Canvas" fill="none">
<g id="Vector">
<path d="M 17.3049 0L 2.69506 0C 1.20665 0 0 1.20659 0 2.69504L 0 17.3049C 0 18.7933 1.2066 19.9999 2.69506 19.9999L 9.90056 19.9999L 9.91284 12.853L 8.05607 12.853C 7.81477 12.853 7.61892 12.6579 7.61799 12.4166L 7.60909 10.1129C 7.60816 9.87025 7.80459 9.67308 8.04721 9.67308L 9.90061 9.67308L 9.90061 7.44709C 9.90061 4.86384 11.4783 3.45724 13.7827 3.45724L 15.6737 3.45724C 15.9157 3.45724 16.1118 3.65339 16.1118 3.89537L 16.1118 5.83789C 16.1118 6.07978 15.9158 6.27587 15.674 6.27602L 14.5135 6.27655C 13.2603 6.27655 13.0176 6.87207 13.0176 7.74602L 13.0176 9.67313L 15.7714 9.67313C 16.0338 9.67313 16.2373 9.90225 16.2064 10.1628L 15.9334 12.4666C 15.9072 12.687 15.7203 12.8531 15.4983 12.8531L 13.0299 12.8531L 13.0176 20L 17.305 20C 18.7934 20 20 18.7934 20 17.305L 20 2.69504C 20 1.20659 18.7934 0 17.3049 0Z" fill="white"/>
</g>
</g>
</svg>

