<svg width="20" height="20" viewBox="0 0 20 20" version="1.1" xmlns="http://www.w3.org/2000/svg" xmlns:xlink="http://www.w3.org/1999/xlink">
<g id="Canvas" fill="none">
<g id="Group">
<g id="Vector">
<path d="M 14.0419 0L 5.95811 0C 2.67279 0 0 2.67279 0 5.95811L 0 14.0419C 0 17.3272 2.67279 20 5.95811 20L 14.0419 20C 17.3272 20 20 17.3272 20 14.0419L 20 5.95811C 20 2.67279 17.3272 0 14.0419 0ZM 17.988 14.0419C 17.988 16.2212 16.2212 17.988 14.0419 17.988L 5.95811 17.988C 3.77875 17.988 2.012 16.2212 2.012 14.0419L 2.012 5.95811C 2.012 3.77871 3.77875 2.012 5.95811 2.012L 14.0419 2.012C 16.2212 2.012 17.988 3.77871 17.988 5.95811L 17.988 14.0419Z" fill="white"/>
</g>
<g id="Vector_2">
<path d="M 5.17271 0C 2.32047 0 0 2.32047 0 5.17268C 0 8.02488 2.32047 10.3454 5.17271 10.3454C 8.02495 10.3454 10.3454 8.02491 10.3454 5.17268C 10.3454 2.32044 8.02495 0 5.17271 0ZM 5.17271 8.33342C 3.42708 8.33342 2.012 6.91834 2.012 5.17271C 2.012 3.42708 3.42712 2.012 5.17271 2.012C 6.91834 2.012 8.33342 3.42708 8.33342 5.17271C 8.33342 6.9183 6.9183 8.33342 5.17271 8.33342Z" transform="translate(4.8273 4.8273)" fill="white"/>
</g>
<g id="Vector_3">
<path d="M 1.23949 2.47898C 1.92404 2.47898 2.47898 1.92404 2.47898 1.23949C 2.47898 0.554938 1.92404 0 1.23949 0C 0.554938 0 0 0.554938 0 1.23949C 0 1.92404 0.554938 2.47898 1.23949 2.47898Z" transform="translate(13.9432 3.62665)" fill="white"/>
</g>
</g>
</g>
</svg>

