<svg viewBox="0 0 190 80" version="1.1" xmlns="http://www.w3.org/2000/svg" xmlns:xlink="http://www.w3.org/1999/xlink">
<g id="Canvas" fill="none">
<g id="Vector">
<path d="M -1.18268e-08 0.784314L 4.79929 0.784314C 5.841 0.784314 6.62228 1.12045 7.14314 1.79272C 7.7384 2.39029 8.03603 3.09991 8.03603 3.92157L 8.03603 79.2157L 2.34384 79.2157C 1.0045 79.2157 0.223223 78.6555 -1.18268e-08 77.535L -1.18268e-08 0.784314ZM 53.2387 17.8151C 51.6761 18.6368 49.7043 19.5331 47.3233 20.5042L 47.3233 11.4286C 47.3233 10.2334 46.914 9.22502 46.0956 8.40336C 45.2771 7.507 44.2726 7.05882 43.082 7.05882C 41.8915 7.05882 40.887 7.507 40.0685 8.40336C 39.25 9.22502 38.8408 10.2334 38.8408 11.4286L 38.8408 18.9356C 38.8408 20.2801 39.1384 21.8487 39.7337 23.6415C 40.329 25.3595 40.9242 26.7787 41.5195 27.8992L 42.3008 29.4678L 51.8994 47.619C 53.0899 49.7105 53.9828 51.8021 54.578 53.8936C 55.1733 55.9851 55.4709 57.5537 55.4709 58.5994L 55.4709 60.056L 55.4709 70.028C 55.4709 72.7918 54.4664 75.1447 52.4574 77.0868C 50.5228 79.0289 48.179 80 45.4259 80L 40.4034 80C 37.7247 79.9253 35.4553 78.9169 33.5951 76.9748C 31.7349 75.0327 30.7676 72.7171 30.6932 70.028L 30.6932 61.9608C 30.6932 59.8693 31.4372 58.4127 32.9254 57.591C 33.2974 57.4416 35.2692 56.5826 38.8408 55.014L 38.8408 68.6835C 38.8408 69.8786 39.25 70.887 40.0685 71.7087C 40.887 72.5303 41.8915 72.9412 43.082 72.9412C 44.2726 72.9412 45.2771 72.5303 46.0956 71.7087C 46.914 70.8123 47.3233 69.7666 47.3233 68.5714L 47.3233 59.6078C 47.3233 58.2633 47.0257 56.6947 46.4304 54.902C 45.8351 53.1092 45.2399 51.6527 44.6446 50.5322L 43.8633 48.9636L 34.2647 30.9244C 33.0742 28.8329 32.1813 26.7414 31.5861 24.6499C 30.9908 22.5584 30.6932 21.0271 30.6932 20.056L 30.6932 18.4874L 30.6932 10.4202C 30.6932 7.65639 31.6605 5.22876 33.5951 3.13725C 35.6041 1.04575 37.9851 1.0448e-06 40.7382 1.0448e-06L 45.7607 1.0448e-06C 48.4394 0.0746976 50.7088 1.1578 52.569 3.2493C 54.5036 5.3408 55.4709 7.73109 55.4709 10.4202L 55.4709 13.4454C 55.4709 15.5369 54.7268 16.9935 53.2387 17.8151ZM 150.924 0.784314L 150.924 79.2157L 142.999 79.2157L 142.999 38.7675L 136.972 65.6583L 134.517 65.6583C 133.624 65.6583 132.805 65.4715 132.061 65.098C 131.392 64.6499 130.87 64.2764 130.498 63.9776C 130.126 63.6788 129.754 63.0812 129.382 62.1849C 129.01 61.2138 128.824 60.7283 128.824 60.7283C 128.824 60.6536 128.713 60.1681 128.489 59.2717L 123.802 38.7675L 123.802 79.2157L 115.877 79.2157L 115.877 0.784314L 120.788 0.784314C 121.681 0.784314 122.425 1.04575 123.02 1.56863C 123.616 2.01681 123.988 2.50234 124.136 3.02521L 124.36 3.69748L 133.624 48.7395L 142.441 3.58543C 143.036 1.71802 144.227 0.784314 146.013 0.784314L 150.924 0.784314ZM 190 0.784314L 180.401 46.6106L 180.401 79.2157L 174.709 79.2157C 173.295 79.2157 172.514 78.4314 172.365 76.8627L 172.365 46.6106L 162.767 0.784314L 168.682 0.784314C 168.905 0.784314 169.129 0.821663 169.352 0.89636C 169.65 0.971056 170.022 1.23249 170.468 1.68067C 170.914 2.12885 171.175 2.72642 171.249 3.47339L 176.383 33.1653L 181.518 3.47339C 181.592 2.72642 181.852 2.12885 182.299 1.68067C 182.745 1.23249 183.08 0.971056 183.303 0.89636C 183.601 0.821663 183.861 0.784314 184.085 0.784314L 190 0.784314Z" fill="white"/>
</g>
</g>
</svg>

