<svg viewBox="0 0 233 80" version="1.1" xmlns="http://www.w3.org/2000/svg" xmlns:xlink="http://www.w3.org/1999/xlink">
<g data-name="Canvas" fill="none">
<g data-name="Latest">
<g data-name="Canvas">
<g data-name="Latest">
<g data-name="Vector">
<path d="M 8.03293 71.2605L 26.107 71.2605C 25.8839 71.7834 25.5492 72.5303 25.1029 73.5014C 24.731 74.3978 24.3963 75.1821 24.0988 75.8543C 23.8013 76.4519 23.6153 76.8627 23.541 77.0868C 22.7228 78.5061 21.2724 79.2157 19.1898 79.2157L 6.02933e-07 79.2157L 6.02933e-07 0.784314L 5.57843 0.784314C 7.21476 0.933707 8.03293 1.75537 8.03293 3.2493L 8.03293 71.2605ZM 62.9028 79.2157L 51.6344 5.04202C 51.4856 4.14566 51.2997 3.43604 51.0765 2.91317C 50.9278 2.39029 50.5187 1.90476 49.8493 1.45658C 49.2542 1.0084 48.4361 0.784314 47.3948 0.784314L 43.0436 0.784314L 31.2173 79.2157L 40.0312 79.2157L 47.0601 25.2101L 54.0889 79.2157L 62.9028 79.2157ZM 104.805 0.784314L 102.127 6.61064C 101.532 8.02988 100.119 8.7395 97.8874 8.7395L 91.6396 8.7395C 90.4495 8.7395 89.7801 9.37442 89.6314 10.6443L 89.6314 79.2157L 83.9414 79.2157C 82.4538 79.2157 81.71 78.6555 81.71 77.535L 81.71 8.7395L 70.4416 8.7395L 70.4416 3.2493C 70.4416 2.57703 70.6647 2.01681 71.111 1.56863C 71.6316 1.04575 72.2267 0.784314 72.8961 0.784314L 104.805 0.784314ZM 127.097 71.2605L 143.832 71.2605C 143.609 71.7834 143.274 72.5303 142.828 73.5014C 142.456 74.3978 142.121 75.1821 141.824 75.8543C 141.526 76.4519 141.34 76.8627 141.266 77.0868C 140.448 78.5061 138.997 79.2157 136.915 79.2157L 119.064 79.2157L 119.064 3.02521C 119.212 1.53128 120.031 0.784314 121.518 0.784314L 142.382 0.784314L 139.704 6.61064C 139.035 8.10457 137.621 8.85154 135.464 8.85154L 128.993 8.85154C 127.729 8.85154 127.097 9.48646 127.097 10.7563L 127.097 34.0616L 139.146 34.0616C 138.923 34.5845 138.588 35.3315 138.142 36.3025C 137.77 37.1989 137.435 37.9832 137.138 38.6555C 136.84 39.3277 136.654 39.7759 136.58 40C 135.762 41.4192 134.349 42.1288 132.34 42.1288L 128.993 42.1288C 128.473 42.1288 128.026 42.3156 127.654 42.6891C 127.282 43.0626 127.097 43.5107 127.097 44.0336L 127.097 71.2605ZM 182.838 17.8151C 181.276 18.6368 179.305 19.5331 176.924 20.5042L 176.924 11.4286C 176.924 10.2334 176.515 9.22502 175.697 8.40336C 174.879 7.507 173.875 7.05882 172.685 7.05882C 171.495 7.05882 170.491 7.507 169.672 8.40336C 168.854 9.22502 168.445 10.2334 168.445 11.4286L 168.445 18.9356C 168.445 20.2801 168.743 21.8487 169.338 23.6415C 169.933 25.3595 170.528 26.7787 171.123 27.8992L 171.904 29.4678L 181.499 47.619C 182.689 49.7105 183.581 51.8021 184.176 53.8936C 184.771 55.9851 185.069 57.5537 185.069 58.5994L 185.069 60.056L 185.069 70.028C 185.069 72.7918 184.065 75.1447 182.057 77.0868C 180.123 79.0289 177.78 80 175.028 80L 170.007 80C 167.33 79.9253 165.061 78.9169 163.201 76.9748C 161.342 75.0327 160.375 72.7171 160.301 70.028L 160.301 61.9608C 160.301 59.8693 161.044 58.4127 162.532 57.591C 162.904 57.4416 164.875 56.5826 168.445 55.014L 168.445 68.6835C 168.445 69.8786 168.854 70.887 169.672 71.7087C 170.491 72.5303 171.495 72.9412 172.685 72.9412C 173.875 72.9412 174.879 72.5303 175.697 71.7087C 176.515 70.8123 176.924 69.7666 176.924 68.5714L 176.924 59.6078C 176.924 58.2633 176.627 56.6947 176.032 54.902C 175.437 53.1092 174.842 51.6527 174.247 50.5322L 173.466 48.9636L 163.871 30.9244C 162.681 28.8329 161.788 26.7414 161.193 24.6499C 160.598 22.5584 160.301 21.0271 160.301 20.056L 160.301 18.4874L 160.301 10.4202C 160.301 7.65639 161.268 5.22876 163.201 3.13725C 165.21 1.04575 167.59 1.0448e-06 170.342 1.0448e-06L 175.362 1.0448e-06C 178.04 0.0746976 180.309 1.1578 182.168 3.2493C 184.102 5.3408 185.069 7.73109 185.069 10.4202L 185.069 13.4454C 185.069 15.5369 184.325 16.9935 182.838 17.8151ZM 233 0.784314L 230.322 6.61064C 229.727 8.02988 228.314 8.7395 226.083 8.7395L 219.835 8.7395C 218.645 8.7395 217.975 9.37442 217.827 10.6443L 217.827 79.2157L 212.137 79.2157C 210.649 79.2157 209.905 78.6555 209.905 77.535L 209.905 8.7395L 198.637 8.7395L 198.637 3.2493C 198.637 2.57703 198.86 2.01681 199.306 1.56863C 199.827 1.04575 200.422 0.784314 201.091 0.784314L 233 0.784314Z" fill="white"/>
</g>
</g>
</g>
</g>
</g>
</svg>

