<svg width="100" height="140" viewBox="0 0 100 140" version="1.1" xmlns="http://www.w3.org/2000/svg" xmlns:xlink="http://www.w3.org/1999/xlink">
<g id="Canvas" fill="none">
<g id="LOGO">
<rect id="Rectangle 2" width="100" height="140" fill="black"/>
<g id="Alex D Logo 2">
<g id="&#208;&#161;&#208;&#187;&#208;&#190;&#208;&#185; 2">
<g id="Layer 1">
<path id="Vector" fill-rule="evenodd" clip-rule="evenodd" d="M 31.9026 27.0112L 14.2811 27.0112L 8.5356 5.71884L 20.4128 5.71884L 21.0985 6.98882L 29.2315 6.98882C 35.1281 6.98882 41.2457 11.7798 42.8252 17.6353C 44.4046 23.4907 40.8736 28.2817 34.977 28.2817L 32.5883 28.2817L 31.9026 27.0117L 31.9026 27.0112ZM 18.0112 1.26998L 17.3255 0L 0 0L 8.83164 32.73L 34.9888 32.73L 35.6745 34L 53 34L 44.1684 1.26998L 18.0112 1.26998ZM 29.3454 22.2684L 30.0311 23.5383L 33.6964 23.5383C 36.9579 23.5383 38.9242 20.8713 38.0502 17.6325C 37.1761 14.3937 33.7725 11.7294 30.5109 11.7294L 23.6557 11.7294L 22.97 10.4594L 14.589 10.4594L 17.7761 22.2712L 29.3454 22.2684Z" transform="translate(23 73)" fill="white"/>
</g>
</g>
</g>
</g>
</g>
</svg>
