<svg width="53" height="34" viewBox="0 0 53 34" fill="none" xmlns="http://www.w3.org/2000/svg">
<path fill-rule="evenodd" clip-rule="evenodd" d="M31.9026 27.0112H14.2811L8.5356 5.71884H20.4128L21.0985 6.98882H29.2315C35.1281 6.98882 41.2457 11.7798 42.8252 17.6353C44.4046 23.4907 40.8736 28.2817 34.977 28.2817H32.5883L31.9026 27.0117V27.0112ZM18.0112 1.26998L17.3255 0H0L8.83164 32.73H34.9888L35.6745 34H53L44.1684 1.26998H18.0112ZM29.3454 22.2684L30.0311 23.5383H33.6964C36.9579 23.5383 38.9242 20.8713 38.0502 17.6325C37.1761 14.3937 33.7725 11.7294 30.5109 11.7294H23.6557L22.97 10.4594H14.589L17.7761 22.2712L29.3454 22.2684Z" fill="white"/>
</svg>
