<?xml version="1.0" encoding="UTF-8"?>
<svg width="928px" height="585px" viewBox="0 0 928 585" version="1.1" xmlns="http://www.w3.org/2000/svg" xmlns:xlink="http://www.w3.org/1999/xlink">
    <!-- Generator: Sketch 49.3 (51167) - http://www.bohemiancoding.com/sketch -->
    <title>ALEX D Repair logo</title>
    <desc>Created with Sketch.</desc>
    <defs></defs>
    <g id="Page-1" stroke="none" stroke-width="1" fill="none" fill-rule="evenodd">
        <g id="ALEX-D-Repair-logo" fill="#FFFFFF">
            <path d="M253.26,482.38 L151.37,102.13 L362,102.13 L506.23,102.13 C610.8,102.13 719.29,187.69 747.3,292.26 C775.31,396.83 712.69,482.39 608.12,482.39 L565.76,482.39 L253.26,482.38 Z M307.25,0 L0,0 L156.62,584.51 L620.49,584.51 L927.74,584.51 L771.12,0 L307.25,0 Z M520.41,397.68 L585.41,397.73 C643.25,397.73 678.12,350.1 662.62,292.26 C647.12,234.42 586.76,186.84 528.92,186.84 L407.35,186.84 L258.72,186.79 L315.24,397.73 L520.41,397.68 Z" id="Shape"></path>
        </g>
    </g>
</svg>