<svg viewBox="0 0 128 80" version="1.1" xmlns="http://www.w3.org/2000/svg" xmlns:xlink="http://www.w3.org/1999/xlink">
<g id="Canvas" fill="none">
<g id="New">
<g id="Canvas_2">
<g id="New_2">
<g id="Vector">
<path d="M 26.1638 6.05507e-07L 26.1638 80L 22.4099 80C 21.0448 80 19.9452 79.6571 19.111 78.9714C 18.2768 78.2095 17.7459 77.5619 17.5184 77.0286C 17.2909 76.4952 17.1013 75.7714 16.9496 74.8571L 8.19041 35.3143L 8.19041 80L -4.8216e-07 80L -4.8216e-07 6.05507e-07L 3.75394 6.05507e-07C 5.19485 6.05507e-07 6.3324 0.228571 7.16661 0.685714C 8.00082 1.14286 8.5696 1.67619 8.87295 2.28572C 9.1763 2.81905 9.40381 3.54286 9.55548 4.45714L 17.9734 46.0571L 17.9734 6.05507e-07L 26.1638 6.05507e-07ZM 57.516 71.8857L 74.5794 71.8857C 74.3518 72.4191 74.0106 73.181 73.5556 74.1714C 73.1764 75.0857 72.8351 75.8857 72.5318 76.5714C 72.2284 77.1809 72.0388 77.6 71.963 77.8286C 71.1288 79.2762 69.6499 80 67.5265 80L 49.3256 80L 49.3256 2.28572C 49.4773 0.761906 50.3115 6.05507e-07 51.8282 6.05507e-07L 73.1005 6.05507e-07L 70.3704 5.94286C 69.6879 7.46667 68.247 8.22857 66.0477 8.22857L 59.4498 8.22857C 58.1606 8.22857 57.516 8.87619 57.516 10.1714L 57.516 33.9429L 69.8016 33.9429C 69.5741 34.4762 69.2328 35.2381 68.7778 36.2286C 68.3986 37.1429 68.0574 37.9429 67.754 38.6286C 67.4507 39.3143 67.2611 39.7714 67.1852 40C 66.351 41.4476 64.9101 42.1714 62.8625 42.1714L 59.4498 42.1714C 58.919 42.1714 58.464 42.3619 58.0848 42.7429C 57.7056 43.1238 57.516 43.5809 57.516 44.1143L 57.516 71.8857ZM 128 6.05507e-07L 118.331 80L 110.709 80L 105.135 39.4286L 99.675 80L 92.1671 80L 82.2704 6.05507e-07L 88.5269 6.05507e-07C 89.9678 6.05507e-07 90.802 0.571429 91.0295 1.71429L 96.4898 45.4857L 100.471 17.8286C 100.699 15.3905 101.268 13.7143 102.178 12.8C 103.163 11.8857 104.946 11.4286 107.524 11.4286L 108.548 11.4286L 113.894 45.4857L 119.127 1.6C 119.355 0.533333 120.151 6.05507e-07 121.516 6.05507e-07L 128 6.05507e-07Z" fill="white"/>
</g>
</g>
</g>
</g>
</g>
</svg>

