<svg viewBox="0 0 240 80" version="1.1" xmlns="http://www.w3.org/2000/svg" xmlns:xlink="http://www.w3.org/1999/xlink">
<g data-name="Canvas" fill="none">
<g data-name="photos">
<g data-name="Canvas">
<g data-name="photos">
<g data-name="Vector">
<path d="M 5.20398e-07 0.784314L 13.952 0.784314C 16.6307 0.784314 18.9747 1.75537 20.9837 3.69748C 23.0672 5.63959 24.109 7.95518 24.109 10.6443L 24.109 30.9244C 24.109 34.8833 23.1416 38.0579 21.207 40.4482C 19.2723 42.8385 16.4447 44.0336 12.7242 44.0336L 7.92471 44.0336L 7.92471 79.2157L 2.23231 79.2157C 0.744106 79.2157 5.20398e-07 78.6555 5.20398e-07 77.535L 5.20398e-07 0.784314ZM 16.4075 32.7171L 16.4075 12.1008C 16.2587 11.0551 15.775 10.1587 14.9565 9.41176C 14.2124 8.6648 13.2823 8.29132 12.1661 8.29132L 7.92471 8.29132L 7.92471 36.5266L 12.1661 36.5266C 13.2823 36.5266 14.2124 36.1531 14.9565 35.4062C 15.775 34.6592 16.2587 33.7628 16.4075 32.7171ZM 60.1173 0.784314L 64.9167 0.784314C 66.0329 0.784314 66.8514 1.12045 67.3723 1.79272C 67.8932 2.39029 68.1536 3.09991 68.1536 3.92157L 68.1536 79.2157L 60.1173 79.2157L 60.1173 45.042C 59.9685 43.8469 59.336 43.2493 58.2198 43.2493L 49.5138 43.2493L 49.5138 79.2157L 41.4775 79.2157L 41.4775 3.92157C 41.4775 3.09991 41.7379 2.39029 42.2588 1.79272C 42.7796 1.12045 43.5982 0.784314 44.7143 0.784314L 49.5138 0.784314L 49.5138 32.493C 49.5138 33.5387 49.737 34.2857 50.1835 34.7339C 50.6299 35.1074 51.3368 35.2941 52.3042 35.2941L 60.1173 35.2941L 60.1173 0.784314ZM 96.4603 1.0448e-06L 102.599 1.0448e-06C 105.278 0.149394 107.548 1.19514 109.408 3.13725C 111.343 5.00467 112.31 7.28291 112.31 9.97199L 112.31 70.1401C 112.235 72.8291 111.268 75.1074 109.408 76.9748C 107.548 78.8422 105.278 79.8506 102.599 80L 96.4603 80C 93.7072 80 91.3633 79.0289 89.4286 77.0868C 87.494 75.1447 86.4894 72.8291 86.415 70.1401L 86.415 9.97199C 86.415 7.20822 87.3823 4.85528 89.317 2.91317C 91.3261 0.971056 93.7072 1.0448e-06 96.4603 1.0448e-06ZM 98.6927 72.9412L 99.9205 72.9412C 101.111 72.9412 102.116 72.5303 102.934 71.7087C 103.753 70.8123 104.162 69.7666 104.162 68.5714L 104.162 11.4286C 104.162 10.2334 103.753 9.22502 102.934 8.40336C 102.116 7.507 101.111 7.05882 99.9205 7.05882L 98.6927 7.05882C 97.5022 7.13352 96.4976 7.5817 95.6791 8.40336C 94.8606 9.22502 94.4513 10.2334 94.4513 11.4286L 94.4513 68.5714C 94.4513 69.7666 94.8606 70.775 95.6791 71.5966C 96.4976 72.4183 97.5022 72.8665 98.6927 72.9412ZM 159.703 0.784314L 157.025 6.61064C 156.429 8.02988 155.016 8.7395 152.783 8.7395L 146.533 8.7395C 145.342 8.7395 144.672 9.37442 144.524 10.6443L 144.524 79.2157L 138.831 79.2157C 137.343 79.2157 136.599 78.6555 136.599 77.535L 136.599 8.7395L 125.325 8.7395L 125.325 3.2493C 125.325 2.57703 125.548 2.01681 125.995 1.56863C 126.516 1.04575 127.111 0.784314 127.781 0.784314L 159.703 0.784314ZM 180.107 1.0448e-06L 186.246 1.0448e-06C 188.925 0.149394 191.195 1.19514 193.055 3.13725C 194.989 5.00467 195.957 7.28291 195.957 9.97199L 195.957 70.1401C 195.882 72.8291 194.915 75.1074 193.055 76.9748C 191.195 78.8422 188.925 79.8506 186.246 80L 180.107 80C 177.354 80 175.01 79.0289 173.076 77.0868C 171.141 75.1447 170.136 72.8291 170.062 70.1401L 170.062 9.97199C 170.062 7.20822 171.029 4.85528 172.964 2.91317C 174.973 0.971056 177.354 1.0448e-06 180.107 1.0448e-06ZM 182.34 72.9412L 183.567 72.9412C 184.758 72.9412 185.763 72.5303 186.581 71.7087C 187.4 70.8123 187.809 69.7666 187.809 68.5714L 187.809 11.4286C 187.809 10.2334 187.4 9.22502 186.581 8.40336C 185.763 7.507 184.758 7.05882 183.567 7.05882L 182.34 7.05882C 181.149 7.13352 180.145 7.5817 179.326 8.40336C 178.508 9.22502 178.098 10.2334 178.098 11.4286L 178.098 68.5714C 178.098 69.7666 178.508 70.775 179.326 71.5966C 180.145 72.4183 181.149 72.8665 182.34 72.9412ZM 237.768 17.8151C 236.205 18.6368 234.233 19.5331 231.852 20.5042L 231.852 11.4286C 231.852 10.2334 231.443 9.22502 230.624 8.40336C 229.806 7.507 228.801 7.05882 227.611 7.05882C 226.42 7.05882 225.416 7.507 224.597 8.40336C 223.779 9.22502 223.369 10.2334 223.369 11.4286L 223.369 18.9356C 223.369 20.2801 223.667 21.8487 224.262 23.6415C 224.857 25.3595 225.453 26.7787 226.048 27.8992L 226.829 29.4678L 236.428 47.619C 237.619 49.7105 238.512 51.8021 239.107 53.8936C 239.702 55.9851 240 57.5537 240 58.5994L 240 60.056L 240 70.028C 240 72.7918 238.995 75.1447 236.986 77.0868C 235.052 79.0289 232.708 80 229.955 80L 224.932 80C 222.253 79.9253 219.984 78.9169 218.123 76.9748C 216.263 75.0327 215.296 72.7171 215.221 70.028L 215.221 61.9608C 215.221 59.8693 215.965 58.4127 217.454 57.591C 217.826 57.4416 219.798 56.5826 223.369 55.014L 223.369 68.6835C 223.369 69.8786 223.779 70.887 224.597 71.7087C 225.416 72.5303 226.42 72.9412 227.611 72.9412C 228.801 72.9412 229.806 72.5303 230.624 71.7087C 231.443 70.8123 231.852 69.7666 231.852 68.5714L 231.852 59.6078C 231.852 58.2633 231.554 56.6947 230.959 54.902C 230.364 53.1092 229.769 51.6527 229.173 50.5322L 228.392 48.9636L 218.793 30.9244C 217.602 28.8329 216.71 26.7414 216.114 24.6499C 215.519 22.5584 215.221 21.0271 215.221 20.056L 215.221 18.4874L 215.221 10.4202C 215.221 7.65639 216.189 5.22876 218.123 3.13725C 220.132 1.04575 222.514 1.0448e-06 225.267 1.0448e-06L 230.289 1.0448e-06C 232.968 0.0746976 235.238 1.1578 237.098 3.2493C 239.033 5.3408 240 7.73109 240 10.4202L 240 13.4454C 240 15.5369 239.256 16.9935 237.768 17.8151Z" fill="white"/>
</g>
</g>
</g>
</g>
</g>
</svg>

