<svg width="68" height="50" viewBox="0 0 68 50" version="1.1" xmlns="http://www.w3.org/2000/svg" xmlns:xlink="http://www.w3.org/1999/xlink">
<g id="Canvas" fill="none">
<g id="Play Button">
<path id="Fill 1" fill-rule="evenodd" clip-rule="evenodd" d="M 68 25L 68 34.2908C 68 44.9325 65.8115 47.8037 58.4059 49.4933C 55.7125 50 42.416 50 33.9995 50C 25.5839 50 12.2865 50 9.59411 49.4933C 2.18746 47.8037 0 44.9325 0 34.2908L 0 25L 0 15.7092C 0 5.0675 2.18746 2.19625 9.59411 0.50675C 12.2865 0 25.5839 0 33.9995 0C 42.416 0 55.7125 0 58.4059 0.50675C 65.8115 2.19625 68 5.0675 68 15.7092L 68 25Z" fill="#3B3738" fill-opacity="0.9"/>
<g id="Play icon">
<path id="Fill 1_2" fill-rule="evenodd" clip-rule="evenodd" d="M 0 0L 0 19.4247L 18.6833 9.79649L 0 0Z" transform="translate(27.2676 15.203)" fill="white"/>
<path id="Fill 2" fill-rule="evenodd" clip-rule="evenodd" d="M 16.6635 10.9792L 18.6843 9.79649L 0 0L 16.6635 10.9792Z" transform="translate(27.2676 15.2033)" fill="#CCCCCC"/>
</g>
</g>
</g>
</svg>
