<svg width="294" height="80" viewBox="0 0 294 80" version="1.1" xmlns="http://www.w3.org/2000/svg" xmlns:xlink="http://www.w3.org/1999/xlink">
<g id="Canvas" fill="none">
<g id="Vector">
<path d="M 35.2093 6.05507e-07L 32.4657 5.94286C 31.856 7.39048 30.408 8.11429 28.1217 8.11429L 21.72 8.11429C 20.5007 8.11429 19.8148 8.76191 19.6623 10.0571L 19.6623 80L 13.8322 80C 12.308 80 11.5459 79.4286 11.5459 78.2857L 11.5459 8.11429L 3.39174e-07 8.11429L 3.39174e-07 2.51429C 3.39174e-07 1.82857 0.228633 1.25714 0.685896 0.8C 1.21937 0.266667 1.82906 6.05507e-07 2.51495 6.05507e-07L 35.2093 6.05507e-07ZM 64.5661 6.05507e-07L 69.4817 6.05507e-07C 70.6249 6.05507e-07 71.4632 0.342856 71.9967 1.02857C 72.5301 1.63809 72.7969 2.3619 72.7969 3.2L 72.7969 80L 64.5661 80L 64.5661 45.1429C 64.4137 43.9238 63.7659 43.3143 62.6228 43.3143L 53.7061 43.3143L 53.7061 80L 45.4754 80L 45.4754 3.2C 45.4754 2.3619 45.7421 1.63809 46.2756 1.02857C 46.8091 0.342856 47.6474 6.05507e-07 48.7905 6.05507e-07L 53.7061 6.05507e-07L 53.7061 32.3429C 53.7061 33.4095 53.9347 34.1714 54.392 34.6286C 54.8493 35.0095 55.5733 35.2 56.564 35.2L 64.5661 35.2L 64.5661 6.05507e-07ZM 103.732 71.8857L 120.879 71.8857C 120.651 72.4191 120.308 73.181 119.85 74.1714C 119.469 75.0857 119.126 75.8857 118.822 76.5714C 118.517 77.1809 118.326 77.6 118.25 77.8286C 117.412 79.2762 115.926 80 113.792 80L 95.5011 80L 95.5011 2.28572C 95.6536 0.761906 96.4919 6.05507e-07 98.0161 6.05507e-07L 119.393 6.05507e-07L 116.65 5.94286C 115.964 7.46667 114.516 8.22857 112.306 8.22857L 105.675 8.22857C 104.38 8.22857 103.732 8.87619 103.732 10.1714L 103.732 33.9429L 116.078 33.9429C 115.849 34.4762 115.506 35.2381 115.049 36.2286C 114.668 37.1429 114.325 37.9429 114.02 38.6286C 113.715 39.3143 113.525 39.7714 113.449 40C 112.61 41.4476 111.162 42.1714 109.105 42.1714L 105.675 42.1714C 105.142 42.1714 104.685 42.3619 104.303 42.7429C 103.922 43.1238 103.732 43.5809 103.732 44.1143L 103.732 71.8857ZM 162.789 80L 154.558 80L 154.558 50.7429C 154.558 47.3143 153.148 45.6 150.329 45.6L 145.985 45.6L 145.985 80L 137.753 80L 137.753 6.05507e-07L 152.729 6.05507e-07C 155.473 6.05507e-07 157.835 0.990476 159.817 2.97143C 161.798 4.87619 162.789 7.2381 162.789 10.0571L 162.789 34.7429C 163.018 38.9333 162.027 41.2952 159.817 41.8286C 160.731 42.2857 161.417 43.1619 161.875 44.4571C 162.408 45.6762 162.713 46.7809 162.789 47.7714L 162.789 49.3714L 162.789 80ZM 145.985 37.8286L 150.329 37.8286C 153.148 37.8286 154.558 36.3048 154.558 33.2571L 154.558 11.7714C 154.558 9.02857 153.148 7.65714 150.329 7.65714L 145.985 7.65714L 145.985 37.8286ZM 210.414 80L 198.868 4.34286C 198.716 3.42857 198.526 2.70476 198.297 2.17143C 198.144 1.6381 197.725 1.14286 197.039 0.685714C 196.43 0.228571 195.591 6.05507e-07 194.524 6.05507e-07L 190.066 6.05507e-07L 177.949 80L 186.98 80L 194.182 24.9143L 201.383 80L 210.414 80ZM 226.827 6.05507e-07L 241.116 6.05507e-07C 243.86 6.05507e-07 246.26 0.990476 248.318 2.97143C 250.452 4.95238 251.519 7.31429 251.519 10.0571L 251.519 30.7429C 251.519 34.7809 250.528 38.019 248.547 40.4571C 246.565 42.8952 243.669 44.1143 239.859 44.1143L 234.943 44.1143L 234.943 80L 229.113 80C 227.589 80 226.827 79.4286 226.827 78.2857L 226.827 6.05507e-07ZM 243.631 32.5714L 243.631 11.5429C 243.479 10.4762 242.983 9.5619 242.145 8.8C 241.383 8.03809 240.43 7.65714 239.287 7.65714L 234.943 7.65714L 234.943 36.4571L 239.287 36.4571C 240.43 36.4571 241.383 36.0762 242.145 35.3143C 242.983 34.5524 243.479 33.6381 243.631 32.5714ZM 294 6.05507e-07L 284.169 46.7429L 284.169 80L 278.339 80C 276.891 80 276.09 79.2 275.938 77.6L 275.938 46.7429L 266.107 6.05507e-07L 272.166 6.05507e-07C 272.394 6.05507e-07 272.623 0.0380966 272.852 0.114287C 273.156 0.190478 273.537 0.457144 273.995 0.914287C 274.452 1.37143 274.719 1.98095 274.795 2.74286L 280.053 33.0286L 285.312 2.74286C 285.388 1.98095 285.655 1.37143 286.112 0.914287C 286.569 0.457144 286.912 0.190478 287.141 0.114287C 287.446 0.0380966 287.713 6.05507e-07 287.941 6.05507e-07L 294 6.05507e-07Z" fill="white"/>
</g>
</g>
</svg>

