<svg width="328" height="80" viewBox="0 0 328 80" version="1.1" xmlns="http://www.w3.org/2000/svg" xmlns:xlink="http://www.w3.org/1999/xlink">
<g id="Canvas" fill="none">
<g id="Upcoming">
<g id="Canvas_2">
<g id="Upcoming_2">
<g id="Vector">
<path d="M 25.6323 0.784314L 25.6323 70.028C 25.6323 72.7171 24.7036 74.958 22.8461 76.7507C 20.9887 78.5434 18.7227 79.4771 16.048 79.5518L 16.048 79.6639L 9.91857 79.6639C 7.1696 79.6639 4.82927 78.7302 2.89756 76.8627C 0.965854 74.9953 -4.72364e-07 72.7171 -4.72364e-07 70.028L -4.72364e-07 3.02521C 0.148592 1.53128 0.928704 0.784314 2.34034 0.784314L 8.02401 0.784314L 8.02401 68.5714C 8.02401 69.7666 8.39549 70.775 9.13846 71.5966C 9.95572 72.4183 10.9587 72.8291 12.1475 72.8291L 13.3733 72.8291C 14.5621 72.8291 15.5651 72.4183 16.3824 71.5966C 17.1996 70.775 17.6082 69.7666 17.6082 68.5714L 17.6082 0.784314L 25.6323 0.784314ZM 47.209 0.784314L 61.1396 0.784314C 63.8143 0.784314 66.1546 1.75537 68.1606 3.69748C 70.2409 5.63959 71.281 7.95518 71.281 10.6443L 71.281 30.9244C 71.281 34.8833 70.3152 38.0579 68.3835 40.4482C 66.4518 42.8385 63.6285 44.0336 59.9137 44.0336L 55.1216 44.0336L 55.1216 79.2157L 49.4379 79.2157C 47.952 79.2157 47.209 78.6555 47.209 77.535L 47.209 0.784314ZM 63.5914 32.7171L 63.5914 12.1008C 63.4428 11.0551 62.9598 10.1587 62.1426 9.41176C 61.3996 8.6648 60.4709 8.29132 59.3565 8.29132L 55.1216 8.29132L 55.1216 36.5266L 59.3565 36.5266C 60.4709 36.5266 61.3996 36.1531 62.1426 35.4062C 62.9598 34.6592 63.4428 33.7628 63.5914 32.7171ZM 114.367 51.0924L 114.367 70.028C 114.367 72.7171 113.438 75.0327 111.58 76.9748C 109.723 78.8422 107.457 79.8506 104.782 80L 99.8788 80C 97.1298 80 94.7524 79.0289 92.7464 77.0868C 90.8146 75.1447 89.8488 72.7918 89.8488 70.028L 89.8488 9.97199C 89.8488 7.20822 90.8146 4.85528 92.7464 2.91317C 94.7524 0.971056 97.1298 1.0448e-06 99.8788 1.0448e-06L 104.782 1.0448e-06C 107.457 0.0746976 109.723 1.0831 111.58 3.02521C 113.438 4.96732 114.367 7.28291 114.367 9.97199L 114.367 21.9608C 114.367 24.2017 113.661 25.6209 112.249 26.2185L 106.454 28.9076L 106.454 11.3165C 106.454 10.1214 106.008 9.11298 105.117 8.29132C 104.299 7.46965 103.296 7.05882 102.108 7.05882C 100.919 7.05882 99.916 7.46965 99.0987 8.29132C 98.2814 9.11298 97.8728 10.1214 97.8728 11.3165L 97.8728 68.5714C 97.8728 69.7666 98.2814 70.8123 99.0987 71.7087C 99.916 72.5303 100.919 72.9412 102.108 72.9412C 103.296 72.9412 104.299 72.5303 105.117 71.7087C 106.008 70.887 106.454 69.8413 106.454 68.5714L 106.454 58.0392C 106.454 55.9477 107.16 54.4911 108.571 53.6695C 108.794 53.5948 109.203 53.408 109.797 53.1092C 110.466 52.8105 111.246 52.4743 112.138 52.1008C 113.104 51.6527 113.847 51.3165 114.367 51.0924ZM 143.522 1.0448e-06L 149.652 1.0448e-06C 152.326 0.149394 154.592 1.19514 156.45 3.13725C 158.381 5.00467 159.347 7.28291 159.347 9.97199L 159.347 70.1401C 159.273 72.8291 158.307 75.1074 156.45 76.9748C 154.592 78.8422 152.326 79.8506 149.652 80L 143.522 80C 140.773 80 138.433 79.0289 136.501 77.0868C 134.569 75.1447 133.566 72.8291 133.491 70.1401L 133.491 9.97199C 133.491 7.20822 134.458 4.85528 136.39 2.91317C 138.396 0.971056 140.773 1.0448e-06 143.522 1.0448e-06ZM 145.751 72.9412L 146.977 72.9412C 148.166 72.9412 149.169 72.5303 149.986 71.7087C 150.803 70.8123 151.212 69.7666 151.212 68.5714L 151.212 11.4286C 151.212 10.2334 150.803 9.22502 149.986 8.40336C 149.169 7.507 148.166 7.05882 146.977 7.05882L 145.751 7.05882C 144.562 7.13352 143.559 7.5817 142.742 8.40336C 141.925 9.22502 141.516 10.2334 141.516 11.4286L 141.516 68.5714C 141.516 69.7666 141.925 70.775 142.742 71.5966C 143.559 72.4183 144.562 72.8665 145.751 72.9412ZM 209.565 0.784314L 209.565 79.2157L 201.653 79.2157L 201.653 38.7675L 195.635 65.6583L 193.183 65.6583C 192.291 65.6583 191.474 65.4715 190.731 65.098C 190.063 64.6499 189.542 64.2764 189.171 63.9776C 188.799 63.6788 188.428 63.0812 188.057 62.1849C 187.685 61.2138 187.499 60.7283 187.499 60.7283C 187.499 60.6536 187.388 60.1681 187.165 59.2717L 182.484 38.7675L 182.484 79.2157L 174.572 79.2157L 174.572 0.784314L 179.475 0.784314C 180.367 0.784314 181.11 1.04575 181.704 1.56863C 182.299 2.01681 182.67 2.50234 182.819 3.02521L 183.042 3.69748L 192.291 48.7395L 201.096 3.58543C 201.69 1.71802 202.879 0.784314 204.662 0.784314L 209.565 0.784314ZM 228.189 0.784314L 232.981 0.784314C 234.021 0.784314 234.801 1.12045 235.321 1.79272C 235.916 2.39029 236.213 3.09991 236.213 3.92157L 236.213 79.2157L 230.529 79.2157C 229.192 79.2157 228.412 78.6555 228.189 77.535L 228.189 0.784314ZM 284.023 0.784314L 284.023 79.2157L 280.345 79.2157C 279.008 79.2157 277.93 78.8795 277.113 78.2073C 276.296 77.4603 275.776 76.8254 275.553 76.3025C 275.33 75.7796 275.144 75.07 274.996 74.1737L 266.414 35.4062L 266.414 79.2157L 258.39 79.2157L 258.39 0.784314L 262.068 0.784314C 263.48 0.784314 264.594 1.0084 265.411 1.45658C 266.229 1.90476 266.786 2.42764 267.083 3.02521C 267.38 3.54809 267.603 4.2577 267.752 5.15406L 275.999 45.9384L 275.999 0.784314L 284.023 0.784314ZM 328 9.97199L 328 22.1849C 328 24.3511 327.257 25.8077 325.771 26.5546C 324.88 27.0775 322.948 27.9739 319.976 29.2437L 319.976 11.3165C 319.976 10.1214 319.567 9.11298 318.75 8.29132C 317.933 7.46965 316.93 7.05882 315.741 7.05882C 314.552 7.05882 313.549 7.46965 312.732 8.29132C 311.915 9.11298 311.506 10.1214 311.506 11.3165L 311.506 68.6835C 311.506 69.8786 311.915 70.887 312.732 71.7087C 313.549 72.5303 314.552 72.9412 315.741 72.9412C 316.93 72.9412 317.933 72.5303 318.75 71.7087C 319.567 70.887 319.976 69.8786 319.976 68.6835L 319.976 45.2661L 319.642 45.2661C 319.122 45.2661 318.602 45.0794 318.081 44.7059C 317.636 44.2577 317.301 43.8095 317.078 43.3613L 316.744 42.6891L 314.069 37.0868L 324.099 37.0868C 326.7 37.0868 328 38.5434 328 41.4566L 328 70.028C 328 72.7171 327.034 75.0327 325.102 76.9748C 323.245 78.8422 320.979 79.8506 318.304 80L 313.401 80C 310.652 80 308.311 79.0289 306.38 77.0868C 304.448 75.1447 303.482 72.7918 303.482 70.028L 303.482 9.97199C 303.482 7.20822 304.448 4.85528 306.38 2.91317C 308.311 0.971056 310.652 1.0448e-06 313.401 1.0448e-06L 318.304 1.0448e-06C 320.979 0.149394 323.245 1.19514 325.102 3.13725C 327.034 5.00467 328 7.28291 328 9.97199Z" fill="white"/>
</g>
</g>
</g>
</g>
</g>
</svg>

