<svg width="240" height="80" viewBox="0 0 240 80" version="1.1" xmlns="http://www.w3.org/2000/svg" xmlns:xlink="http://www.w3.org/1999/xlink">
<g id="Canvas" fill="none">
<g id="Videos">
<g id="Canvas_2">
<g id="Videos_2">
<g id="Vector">
<path d="M 32.0027 0.784314L 20.0297 79.2157L 16.5608 79.2157L 16.0013 79.2157C 13.3904 79.2157 11.7865 77.3856 11.1898 73.7255L -4.86141e-07 0.784314L 6.15436 0.784314C 7.34794 0.784314 8.13122 1.79272 8.50421 3.80952L 16.0013 52.9972L 23.9461 0.784314L 32.0027 0.784314ZM 50.2403 0.784314L 55.0519 0.784314C 56.0963 0.784314 56.8795 1.12045 57.4017 1.79272C 57.9985 2.39029 58.2969 3.09991 58.2969 3.92157L 58.2969 79.2157L 52.5901 79.2157C 51.2474 79.2157 50.4641 78.6555 50.2403 77.535L 50.2403 0.784314ZM 80.6764 0.784314L 96.2302 0.784314C 98.9903 0.784314 101.303 1.75537 103.168 3.69748C 105.107 5.56489 106.114 7.88049 106.189 10.6443L 106.189 69.3557C 106.114 72.1195 105.107 74.4725 103.168 76.4146C 101.303 78.282 98.9903 79.2157 96.2302 79.2157L 80.6764 79.2157L 80.6764 0.784314ZM 98.2443 67.1148L 98.2443 12.8852C 98.2443 10.1961 96.827 8.85154 93.9922 8.85154L 88.733 8.85154L 88.733 71.2605L 93.9922 71.2605C 96.827 71.2605 98.2443 69.8786 98.2443 67.1148ZM 137.141 71.2605L 153.926 71.2605C 153.702 71.7834 153.366 72.5303 152.919 73.5014C 152.546 74.3978 152.21 75.1821 151.912 75.8543C 151.613 76.4519 151.427 76.8627 151.352 77.0868C 150.532 78.5061 149.077 79.2157 146.988 79.2157L 129.084 79.2157L 129.084 3.02521C 129.234 1.53128 130.054 0.784314 131.546 0.784314L 152.471 0.784314L 149.786 6.61064C 149.114 8.10457 147.697 8.85154 145.534 8.85154L 139.044 8.85154C 137.775 8.85154 137.141 9.48646 137.141 10.7563L 137.141 34.0616L 149.226 34.0616C 149.002 34.5845 148.667 35.3315 148.219 36.3025C 147.846 37.1989 147.51 37.9832 147.212 38.6555C 146.914 39.3277 146.727 39.7759 146.653 40C 145.832 41.4192 144.415 42.1288 142.4 42.1288L 139.044 42.1288C 138.521 42.1288 138.073 42.3156 137.7 42.6891C 137.327 43.0626 137.141 43.5107 137.141 44.0336L 137.141 71.2605ZM 179.955 1.0448e-06L 186.109 1.0448e-06C 188.794 0.149394 191.07 1.19514 192.935 3.13725C 194.874 5.00467 195.844 7.28291 195.844 9.97199L 195.844 70.1401C 195.769 72.8291 194.8 75.1074 192.935 76.9748C 191.07 78.8422 188.794 79.8506 186.109 80L 179.955 80C 177.194 80 174.845 79.0289 172.905 77.0868C 170.965 75.1447 169.958 72.8291 169.884 70.1401L 169.884 9.97199C 169.884 7.20822 170.854 4.85528 172.793 2.91317C 174.807 0.971056 177.194 1.0448e-06 179.955 1.0448e-06ZM 182.192 72.9412L 183.423 72.9412C 184.617 72.9412 185.624 72.5303 186.445 71.7087C 187.265 70.8123 187.675 69.7666 187.675 68.5714L 187.675 11.4286C 187.675 10.2334 187.265 9.22502 186.445 8.40336C 185.624 7.507 184.617 7.05882 183.423 7.05882L 182.192 7.05882C 180.999 7.13352 179.992 7.5817 179.171 8.40336C 178.351 9.22502 177.94 10.2334 177.94 11.4286L 177.94 68.5714C 177.94 69.7666 178.351 70.775 179.171 71.5966C 179.992 72.4183 180.999 72.8665 182.192 72.9412ZM 237.762 17.8151C 236.195 18.6368 234.219 19.5331 231.83 20.5042L 231.83 11.4286C 231.83 10.2334 231.42 9.22502 230.599 8.40336C 229.78 7.507 228.773 7.05882 227.579 7.05882C 226.386 7.05882 225.379 7.507 224.558 8.40336C 223.736 9.22502 223.326 10.2334 223.326 11.4286L 223.326 18.9356C 223.326 20.2801 223.624 21.8487 224.222 23.6415C 224.819 25.3595 225.416 26.7787 226.013 27.8992L 226.796 29.4678L 236.419 47.619C 237.613 49.7105 238.508 51.8021 239.103 53.8936C 239.702 55.9851 240 57.5537 240 58.5994L 240 60.056L 240 70.028C 240 72.7918 238.993 75.1447 236.979 77.0868C 235.039 79.0289 232.689 80 229.929 80L 224.892 80C 222.207 79.9253 219.931 78.9169 218.068 76.9748C 216.202 75.0327 215.232 72.7171 215.157 70.028L 215.157 61.9608C 215.157 59.8693 215.903 58.4127 217.397 57.591C 217.77 57.4416 219.745 56.5826 223.326 55.014L 223.326 68.6835C 223.326 69.8786 223.736 70.887 224.558 71.7087C 225.379 72.5303 226.386 72.9412 227.579 72.9412C 228.773 72.9412 229.78 72.5303 230.599 71.7087C 231.42 70.8123 231.83 69.7666 231.83 68.5714L 231.83 59.6078C 231.83 58.2633 231.533 56.6947 230.936 54.902C 230.34 53.1092 229.743 51.6527 229.146 50.5322L 228.363 48.9636L 218.739 30.9244C 217.544 28.8329 216.649 26.7414 216.052 24.6499C 215.456 22.5584 215.157 21.0271 215.157 20.056L 215.157 18.4874L 215.157 10.4202C 215.157 7.65639 216.127 5.22876 218.068 3.13725C 220.082 1.04575 222.469 1.0448e-06 225.23 1.0448e-06L 230.265 1.0448e-06C 232.95 0.0746976 235.226 1.1578 237.089 3.2493C 239.03 5.3408 240 7.73109 240 10.4202L 240 13.4454C 240 15.5369 239.254 16.9935 237.762 17.8151Z" fill="white"/>
</g>
</g>
</g>
</g>
</g>
</svg>

