<svg width="20" height="20" viewBox="0 0 20 20" version="1.1" xmlns="http://www.w3.org/2000/svg" xmlns:xlink="http://www.w3.org/1999/xlink">
<g id="Canvas" fill="none">
<g id="Group">
<g id="Vector">
<path d="M 16.25 0L 3.74999 0C 1.67876 0 0 1.67876 0 3.74999L 0 16.25C 0 18.3213 1.67876 20 3.74999 20L 16.25 20C 18.3213 20 20 18.3212 20 16.25L 20 3.74999C 20 1.67876 18.3213 0 16.25 0ZM 16.1438 12.2388C 16.0763 13.0713 15.4438 14.1337 14.56 14.2875C 11.7288 14.5075 8.37377 14.48 5.44129 14.2875C 4.52628 14.1725 3.92505 13.07 3.85755 12.2388C 3.71506 10.4913 3.71506 9.49624 3.85755 7.74874C 3.92505 6.9175 4.54131 5.82122 5.44129 5.72124C 8.34006 5.47747 11.7138 5.52998 14.56 5.72124C 15.5775 5.75872 16.0763 6.80749 16.1438 7.63999C 16.2838 9.3875 16.2838 10.4913 16.1438 12.2388Z" fill="white"/>
</g>
<g id="Vector_2">
<path d="M 1.96842e-07 5.00001L 3.75003 2.5L 1.96842e-07 2.88061e-07L 1.96842e-07 5.00001Z" transform="translate(8.75 7.5)" fill="white"/>
</g>
</g>
</g>
</svg>

